<mxfile host="app.diagrams.net" agent="Mozilla/5.0 (Windows NT 10.0; Win64; x64) AppleWebKit/537.36 (KHTML, like Gecko) Chrome/133.0.0.0 Safari/537.36" version="26.0.16">
  <diagram name="Page-1" id="S9Bwuy3YRTJEWy5wdMFn">
    <mxGraphModel dx="2739" dy="1029" grid="1" gridSize="10" guides="1" tooltips="1" connect="1" arrows="1" fold="1" page="1" pageScale="1" pageWidth="827" pageHeight="1169" math="0" shadow="0">
      <root>
        <mxCell id="0" />
        <mxCell id="1" parent="0" />
        <mxCell id="WZlph2ZZY09jcHt8v_Vg-1" value="&#xa;&lt;h3 style=&quot;box-sizing: border-box; margin-bottom: 0px; font-weight: 300; margin-top: 0px; font-size: 4rem; line-height: 1.1; color: var(--dark-brown); letter-spacing: -0.03em; font-family: &amp;quot;Mabry Pro&amp;quot;, sans-serif; text-align: center; font-style: normal; font-variant-ligatures: normal; font-variant-caps: normal; orphans: 2; text-indent: 0px; text-transform: none; widows: 2; word-spacing: 0px; -webkit-text-stroke-width: 0px; white-space: normal; background-color: rgb(240, 234, 225); text-decoration-thickness: initial; text-decoration-style: initial; text-decoration-color: initial;&quot; class=&quot;heading-style-h2 text-align-center&quot;&gt;Nurseries designed for mindfulness, learning &amp;amp; play&lt;/h3&gt;&#xa;&#xa;" style="rounded=0;whiteSpace=wrap;html=1;" parent="1" vertex="1">
          <mxGeometry x="-240" y="80" width="960" height="2150" as="geometry" />
        </mxCell>
        <mxCell id="WZlph2ZZY09jcHt8v_Vg-9" value="" style="rounded=0;whiteSpace=wrap;html=1;movable=1;resizable=1;rotatable=1;deletable=1;editable=1;locked=0;connectable=1;" parent="1" vertex="1">
          <mxGeometry x="-240" y="80" width="960" height="520" as="geometry" />
        </mxCell>
        <mxCell id="YeddAVHBPftnXwU5FJeL-1" value="" style="rounded=1;whiteSpace=wrap;html=1;align=center;" parent="1" vertex="1">
          <mxGeometry x="-60" y="99" width="620" height="60" as="geometry" />
        </mxCell>
        <mxCell id="YeddAVHBPftnXwU5FJeL-2" value="&lt;font style=&quot;font-size: 72px;&quot;&gt;Welcome to&amp;nbsp;&lt;/font&gt;" style="text;html=1;align=center;verticalAlign=middle;whiteSpace=wrap;rounded=0;fontSize=13;" parent="1" vertex="1">
          <mxGeometry x="-230" y="250" width="480" height="20" as="geometry" />
        </mxCell>
        <mxCell id="YeddAVHBPftnXwU5FJeL-3" value="&lt;font style=&quot;font-size: 68px;&quot;&gt;Coat of Many Colours Nursery&amp;nbsp;&lt;/font&gt;" style="text;html=1;align=left;verticalAlign=middle;whiteSpace=wrap;rounded=0;spacingTop=-38;horizontal=1;spacingBottom=-40;" parent="1" vertex="1">
          <mxGeometry x="-195" y="370" width="870" height="20" as="geometry" />
        </mxCell>
        <mxCell id="YeddAVHBPftnXwU5FJeL-6" value="" style="rounded=1;whiteSpace=wrap;html=1;align=center;" parent="1" vertex="1">
          <mxGeometry x="-191" y="510" width="201" height="60" as="geometry" />
        </mxCell>
        <mxCell id="YeddAVHBPftnXwU5FJeL-7" value="" style="rounded=1;whiteSpace=wrap;html=1;align=center;" parent="1" vertex="1">
          <mxGeometry x="30" y="510" width="195" height="60" as="geometry" />
        </mxCell>
        <mxCell id="YeddAVHBPftnXwU5FJeL-8" value="" style="rounded=0;whiteSpace=wrap;html=1;align=center;glass=0;shadow=0;sketch=1;curveFitting=1;jiggle=2;" parent="1" vertex="1">
          <mxGeometry x="304" y="185" width="371" height="110" as="geometry" />
        </mxCell>
        <mxCell id="YeddAVHBPftnXwU5FJeL-10" value="" style="ellipse;shape=cloud;whiteSpace=wrap;html=1;sketch=1;curveFitting=1;jiggle=2;" parent="1" vertex="1">
          <mxGeometry x="100" y="380" width="150" height="100" as="geometry" />
        </mxCell>
        <mxCell id="YeddAVHBPftnXwU5FJeL-11" value="" style="rounded=0;whiteSpace=wrap;html=1;movable=1;resizable=1;rotatable=1;deletable=1;editable=1;locked=0;connectable=1;" parent="1" vertex="1">
          <mxGeometry x="-240" y="600" width="960" height="520" as="geometry" />
        </mxCell>
        <mxCell id="YeddAVHBPftnXwU5FJeL-12" value="" style="rounded=0;whiteSpace=wrap;html=1;sketch=1;curveFitting=1;jiggle=2;" parent="1" vertex="1">
          <mxGeometry x="280" y="390" width="410" height="180" as="geometry" />
        </mxCell>
        <mxCell id="YeddAVHBPftnXwU5FJeL-13" value="" style="rounded=0;whiteSpace=wrap;html=1;sketch=1;curveFitting=1;jiggle=2;verticalAlign=middle;align=center;" parent="1" vertex="1">
          <mxGeometry x="-191" y="670" width="261" height="380" as="geometry" />
        </mxCell>
        <mxCell id="YeddAVHBPftnXwU5FJeL-14" value="&lt;h2 style=&quot;box-sizing: border-box; margin-bottom: 0px; font-weight: 300; margin-top: 0px; font-size: 0.75rem; line-height: 1.5; letter-spacing: 0.01em; font-family: &amp;quot;Mabry Pro&amp;quot;, sans-serif; color: var(--dark-brown); text-transform: uppercase; mix-blend-mode: multiply; overflow: visible; text-align: start;&quot; class=&quot;heading-style-h5&quot;&gt;&lt;span&gt;who we are&lt;/span&gt;&lt;/h2&gt;" style="text;html=1;align=center;verticalAlign=middle;whiteSpace=wrap;rounded=0;" parent="1" vertex="1">
          <mxGeometry x="95" y="670" width="130" height="45" as="geometry" />
        </mxCell>
        <mxCell id="YeddAVHBPftnXwU5FJeL-15" value="&lt;font style=&quot;font-size: 41px;&quot;&gt;We’re a nursery on a  mission to empower parents to raise a happy, healthy and conscious generation&lt;/font&gt;" style="text;html=1;align=left;verticalAlign=middle;whiteSpace=wrap;rounded=0;spacingTop=-38;horizontal=1;spacingBottom=-40;" parent="1" vertex="1">
          <mxGeometry x="100" y="830" width="480" height="20" as="geometry" />
        </mxCell>
        <mxCell id="YeddAVHBPftnXwU5FJeL-16" value="" style="rounded=1;whiteSpace=wrap;html=1;" parent="1" vertex="1">
          <mxGeometry x="95" y="1010" width="145" height="50" as="geometry" />
        </mxCell>
        <mxCell id="YeddAVHBPftnXwU5FJeL-18" value="" style="rounded=0;whiteSpace=wrap;html=1;movable=1;resizable=1;rotatable=1;deletable=1;editable=1;locked=0;connectable=1;" parent="1" vertex="1">
          <mxGeometry x="-240" y="1120" width="960" height="520" as="geometry" />
        </mxCell>
        <mxCell id="YeddAVHBPftnXwU5FJeL-19" value="&lt;h2 style=&quot;box-sizing: border-box; margin-bottom: 0px; font-weight: 300; margin-top: 0px; font-size: 0.75rem; line-height: 1.5; letter-spacing: 0.01em; font-family: &amp;quot;Mabry Pro&amp;quot;, sans-serif; color: var(--dark-brown); text-transform: uppercase; mix-blend-mode: multiply; overflow: visible; text-align: start;&quot; class=&quot;heading-style-h5&quot;&gt;&lt;span&gt;oUR MISSION&amp;nbsp;&lt;/span&gt;&lt;/h2&gt;" style="text;html=1;align=center;verticalAlign=middle;whiteSpace=wrap;rounded=0;" parent="1" vertex="1">
          <mxGeometry x="-170" y="1160" width="130" height="45" as="geometry" />
        </mxCell>
        <mxCell id="YeddAVHBPftnXwU5FJeL-20" value="&lt;h3 style=&quot;box-sizing: border-box; margin-bottom: 0px; font-weight: 300; margin-top: 0px; line-height: 1.2; color: var(--dark-brown); letter-spacing: -0.03em; font-family: &amp;quot;Mabry Pro&amp;quot;, sans-serif; text-align: start;&quot; class=&quot;heading-style-h3&quot;&gt;&lt;font style=&quot;font-size: 32px;&quot;&gt;We focus on children’s mental and physical health in the early years. Four key factors set us apart:&lt;/font&gt;&lt;/h3&gt;" style="text;html=1;align=center;verticalAlign=middle;whiteSpace=wrap;rounded=0;" parent="1" vertex="1">
          <mxGeometry x="-180" y="1230" width="780" height="30" as="geometry" />
        </mxCell>
        <mxCell id="YeddAVHBPftnXwU5FJeL-22" value="" style="rounded=1;whiteSpace=wrap;html=1;" parent="1" vertex="1">
          <mxGeometry x="-170" y="1310" width="195" height="290" as="geometry" />
        </mxCell>
        <mxCell id="YeddAVHBPftnXwU5FJeL-25" value="" style="rounded=1;whiteSpace=wrap;html=1;" parent="1" vertex="1">
          <mxGeometry x="35" y="1310" width="195" height="290" as="geometry" />
        </mxCell>
        <mxCell id="YeddAVHBPftnXwU5FJeL-26" value="" style="rounded=1;whiteSpace=wrap;html=1;" parent="1" vertex="1">
          <mxGeometry x="243.5" y="1310" width="195" height="290" as="geometry" />
        </mxCell>
        <mxCell id="YeddAVHBPftnXwU5FJeL-27" value="" style="rounded=1;whiteSpace=wrap;html=1;" parent="1" vertex="1">
          <mxGeometry x="455" y="1310" width="195" height="290" as="geometry" />
        </mxCell>
        <mxCell id="YeddAVHBPftnXwU5FJeL-30" value="" style="rounded=1;whiteSpace=wrap;html=1;" parent="1" vertex="1">
          <mxGeometry x="-170.5" y="1520" width="195" height="80" as="geometry" />
        </mxCell>
        <mxCell id="YeddAVHBPftnXwU5FJeL-31" value="" style="rounded=1;whiteSpace=wrap;html=1;" parent="1" vertex="1">
          <mxGeometry x="35" y="1520" width="195" height="80" as="geometry" />
        </mxCell>
        <mxCell id="YeddAVHBPftnXwU5FJeL-32" value="" style="rounded=1;whiteSpace=wrap;html=1;" parent="1" vertex="1">
          <mxGeometry x="243.5" y="1520" width="195" height="80" as="geometry" />
        </mxCell>
        <mxCell id="YeddAVHBPftnXwU5FJeL-33" value="" style="rounded=1;whiteSpace=wrap;html=1;" parent="1" vertex="1">
          <mxGeometry x="455" y="1520" width="195" height="80" as="geometry" />
        </mxCell>
        <mxCell id="YeddAVHBPftnXwU5FJeL-35" value="&lt;h2 style=&quot;box-sizing: border-box; margin-bottom: 0px; font-weight: 300; margin-top: 0px; font-size: 0.75rem; line-height: 1.5; letter-spacing: 0.01em; font-family: &amp;quot;Mabry Pro&amp;quot;, sans-serif; color: var(--dark-brown); text-transform: uppercase; mix-blend-mode: multiply; overflow: visible; text-align: start;&quot; class=&quot;heading-style-h5&quot;&gt;&lt;span&gt;OUR NURSERIES&amp;nbsp;&lt;/span&gt;&lt;/h2&gt;" style="text;html=1;align=center;verticalAlign=middle;whiteSpace=wrap;rounded=0;" parent="1" vertex="1">
          <mxGeometry x="145" y="1670" width="130" height="45" as="geometry" />
        </mxCell>
        <mxCell id="YeddAVHBPftnXwU5FJeL-36" value="&lt;h3 style=&quot;box-sizing: border-box; margin-bottom: 0px; font-weight: 300; margin-top: 0px; line-height: 1.1; color: var(--dark-brown); letter-spacing: -0.03em; font-family: &amp;quot;Mabry Pro&amp;quot;, sans-serif;&quot; class=&quot;heading-style-h2 text-align-center&quot;&gt;&lt;font style=&quot;font-size: 41px;&quot;&gt;Nurseries designed for mindfulness, learning &amp;amp; play&lt;/font&gt;&lt;/h3&gt;" style="text;html=1;align=center;verticalAlign=middle;whiteSpace=wrap;rounded=0;" parent="1" vertex="1">
          <mxGeometry x="-70" y="1740" width="600" height="30" as="geometry" />
        </mxCell>
        <mxCell id="YeddAVHBPftnXwU5FJeL-40" value="" style="group" parent="1" vertex="1" connectable="0">
          <mxGeometry x="-190" y="1850" width="868.5" height="330" as="geometry" />
        </mxCell>
        <mxCell id="YeddAVHBPftnXwU5FJeL-37" value="" style="rounded=1;whiteSpace=wrap;html=1;" parent="YeddAVHBPftnXwU5FJeL-40" vertex="1">
          <mxGeometry width="270" height="330" as="geometry" />
        </mxCell>
        <mxCell id="YeddAVHBPftnXwU5FJeL-38" value="" style="rounded=1;whiteSpace=wrap;html=1;" parent="YeddAVHBPftnXwU5FJeL-40" vertex="1">
          <mxGeometry x="300.5" width="270" height="330" as="geometry" />
        </mxCell>
        <mxCell id="YeddAVHBPftnXwU5FJeL-39" value="" style="rounded=1;whiteSpace=wrap;html=1;" parent="YeddAVHBPftnXwU5FJeL-40" vertex="1">
          <mxGeometry x="598.5" width="270" height="330" as="geometry" />
        </mxCell>
        <mxCell id="YeddAVHBPftnXwU5FJeL-41" value="" style="rounded=1;whiteSpace=wrap;html=1;" parent="YeddAVHBPftnXwU5FJeL-40" vertex="1">
          <mxGeometry x="14" y="270" width="60" height="30" as="geometry" />
        </mxCell>
        <mxCell id="YeddAVHBPftnXwU5FJeL-42" value="" style="rounded=1;whiteSpace=wrap;html=1;" parent="YeddAVHBPftnXwU5FJeL-40" vertex="1">
          <mxGeometry x="84" y="270" width="60" height="30" as="geometry" />
        </mxCell>
        <mxCell id="YeddAVHBPftnXwU5FJeL-43" value="" style="rounded=1;whiteSpace=wrap;html=1;" parent="YeddAVHBPftnXwU5FJeL-40" vertex="1">
          <mxGeometry x="154" y="270" width="60" height="30" as="geometry" />
        </mxCell>
        <mxCell id="YeddAVHBPftnXwU5FJeL-44" value="" style="rounded=1;whiteSpace=wrap;html=1;" parent="YeddAVHBPftnXwU5FJeL-40" vertex="1">
          <mxGeometry x="314" y="270" width="60" height="30" as="geometry" />
        </mxCell>
        <mxCell id="YeddAVHBPftnXwU5FJeL-45" value="" style="rounded=1;whiteSpace=wrap;html=1;" parent="YeddAVHBPftnXwU5FJeL-40" vertex="1">
          <mxGeometry x="384" y="270" width="60" height="30" as="geometry" />
        </mxCell>
        <mxCell id="YeddAVHBPftnXwU5FJeL-46" value="" style="rounded=1;whiteSpace=wrap;html=1;" parent="YeddAVHBPftnXwU5FJeL-40" vertex="1">
          <mxGeometry x="454" y="270" width="60" height="30" as="geometry" />
        </mxCell>
        <mxCell id="YeddAVHBPftnXwU5FJeL-47" value="" style="rounded=1;whiteSpace=wrap;html=1;" parent="YeddAVHBPftnXwU5FJeL-40" vertex="1">
          <mxGeometry x="610" y="270" width="60" height="30" as="geometry" />
        </mxCell>
        <mxCell id="YeddAVHBPftnXwU5FJeL-48" value="" style="rounded=1;whiteSpace=wrap;html=1;" parent="YeddAVHBPftnXwU5FJeL-40" vertex="1">
          <mxGeometry x="680" y="270" width="60" height="30" as="geometry" />
        </mxCell>
        <mxCell id="YeddAVHBPftnXwU5FJeL-49" value="" style="rounded=1;whiteSpace=wrap;html=1;" parent="YeddAVHBPftnXwU5FJeL-40" vertex="1">
          <mxGeometry x="750" y="270" width="60" height="30" as="geometry" />
        </mxCell>
        <mxCell id="YeddAVHBPftnXwU5FJeL-50" value="" style="rounded=0;whiteSpace=wrap;html=1;" parent="YeddAVHBPftnXwU5FJeL-40" vertex="1">
          <mxGeometry x="20" y="60" width="230" height="100" as="geometry" />
        </mxCell>
        <mxCell id="YeddAVHBPftnXwU5FJeL-51" value="" style="rounded=0;whiteSpace=wrap;html=1;" parent="YeddAVHBPftnXwU5FJeL-40" vertex="1">
          <mxGeometry x="319.25" y="60" width="230" height="100" as="geometry" />
        </mxCell>
        <mxCell id="YeddAVHBPftnXwU5FJeL-52" value="" style="rounded=0;whiteSpace=wrap;html=1;" parent="YeddAVHBPftnXwU5FJeL-40" vertex="1">
          <mxGeometry x="618.5" y="60" width="230" height="100" as="geometry" />
        </mxCell>
        <mxCell id="YeddAVHBPftnXwU5FJeL-53" value="" style="rounded=0;whiteSpace=wrap;html=1;movable=1;resizable=1;rotatable=1;deletable=1;editable=1;locked=0;connectable=1;" parent="1" vertex="1">
          <mxGeometry x="-240" y="2230" width="960" height="520" as="geometry" />
        </mxCell>
        <mxCell id="YeddAVHBPftnXwU5FJeL-70" value="" style="rounded=0;whiteSpace=wrap;html=1;" parent="1" vertex="1">
          <mxGeometry x="-125" y="2338" width="730" height="282" as="geometry" />
        </mxCell>
        <mxCell id="YeddAVHBPftnXwU5FJeL-71" value="" style="rounded=1;whiteSpace=wrap;html=1;" parent="1" vertex="1">
          <mxGeometry x="-75" y="2640" width="300" height="60" as="geometry" />
        </mxCell>
        <mxCell id="YeddAVHBPftnXwU5FJeL-72" value="" style="rounded=1;whiteSpace=wrap;html=1;" parent="1" vertex="1">
          <mxGeometry x="243.5" y="2640" width="300" height="60" as="geometry" />
        </mxCell>
        <mxCell id="YeddAVHBPftnXwU5FJeL-73" value="" style="shape=singleArrow;direction=west;whiteSpace=wrap;html=1;" parent="1" vertex="1">
          <mxGeometry x="10" y="2650" width="120" height="40" as="geometry" />
        </mxCell>
        <mxCell id="YeddAVHBPftnXwU5FJeL-74" value="" style="shape=singleArrow;direction=north;whiteSpace=wrap;html=1;rotation=90;" parent="1" vertex="1">
          <mxGeometry x="380" y="2610" width="40" height="120" as="geometry" />
        </mxCell>
        <mxCell id="YeddAVHBPftnXwU5FJeL-75" value="&lt;h2 style=&quot;box-sizing: border-box; margin-bottom: 0px; font-weight: 300; margin-top: 0px; font-size: 0.75rem; line-height: 1.5; letter-spacing: 0.01em; font-family: &amp;quot;Mabry Pro&amp;quot;, sans-serif; color: var(--dark-brown); text-transform: uppercase; mix-blend-mode: multiply; overflow: visible; text-align: start;&quot; class=&quot;heading-style-h5&quot;&gt;&lt;span&gt;what OUR PARENTS SAY ABOUT US&amp;nbsp;&lt;/span&gt;&lt;/h2&gt;" style="text;html=1;align=center;verticalAlign=middle;whiteSpace=wrap;rounded=0;" parent="1" vertex="1">
          <mxGeometry x="90" y="2280" width="300" height="45" as="geometry" />
        </mxCell>
        <mxCell id="5yHawppFy8n3t3JP2Twl-1" value="" style="rounded=0;whiteSpace=wrap;html=1;movable=1;resizable=1;rotatable=1;deletable=1;editable=1;locked=0;connectable=1;" vertex="1" parent="1">
          <mxGeometry x="-239.75" y="2744" width="960" height="520" as="geometry" />
        </mxCell>
        <mxCell id="5yHawppFy8n3t3JP2Twl-2" value="" style="endArrow=none;html=1;rounded=0;entryX=0.445;entryY=0.007;entryDx=0;entryDy=0;entryPerimeter=0;exitX=0.448;exitY=0.995;exitDx=0;exitDy=0;exitPerimeter=0;" edge="1" parent="1" source="5yHawppFy8n3t3JP2Twl-1" target="5yHawppFy8n3t3JP2Twl-1">
          <mxGeometry width="50" height="50" relative="1" as="geometry">
            <mxPoint x="180" y="3270" as="sourcePoint" />
            <mxPoint x="180" y="2740" as="targetPoint" />
          </mxGeometry>
        </mxCell>
        <mxCell id="5yHawppFy8n3t3JP2Twl-3" value="&lt;font style=&quot;font-size: 33px;&quot;&gt;JOIN CMCNURSERY&amp;nbsp;&lt;/font&gt;" style="text;html=1;align=center;verticalAlign=middle;whiteSpace=wrap;rounded=0;" vertex="1" parent="1">
          <mxGeometry x="300" y="2924" width="345" height="160" as="geometry" />
        </mxCell>
        <mxCell id="5yHawppFy8n3t3JP2Twl-4" value="" style="rounded=1;whiteSpace=wrap;html=1;" vertex="1" parent="1">
          <mxGeometry x="350" y="3040" width="240" height="60" as="geometry" />
        </mxCell>
        <mxCell id="5yHawppFy8n3t3JP2Twl-5" value="PICTURE" style="text;html=1;align=center;verticalAlign=middle;whiteSpace=wrap;rounded=0;" vertex="1" parent="1">
          <mxGeometry x="-70" y="3000" width="60" height="30" as="geometry" />
        </mxCell>
      </root>
    </mxGraphModel>
  </diagram>
</mxfile>
